<svg width="265" height="116" viewBox="0 0 265 116" fill="none" xmlns="http://www.w3.org/2000/svg">
<rect x="31" y="9" width="203" height="98" rx="5" fill="#AD9959"/>
<path d="M73.4082 49.3662C78.7402 49.3662 81.9336 46.7881 81.9336 42.7305V42.7158C81.9336 39.3906 79.9414 37.5889 75.5176 36.71L73.2764 36.2559C70.8447 35.7725 69.7607 34.9961 69.7607 33.6631V33.6484C69.7607 32.1396 71.123 31.0996 73.3936 31.085C75.5762 31.085 77.0996 32.0957 77.3193 33.751L77.334 33.9268H81.5088L81.4941 33.6484C81.2891 29.9424 78.2861 27.4961 73.3936 27.4961C68.7061 27.4961 65.3369 30.0449 65.3369 33.9121V33.9268C65.3369 37.1055 67.4463 39.0977 71.6211 39.9326L73.8477 40.3721C76.4697 40.9141 77.5098 41.6318 77.5098 43.0674V43.082C77.5098 44.6934 75.9717 45.7627 73.5254 45.7627C71.1084 45.7627 69.3652 44.7373 69.0869 43.0967L69.0576 42.9355H64.8828L64.8975 43.1699C65.1465 47.0664 68.3838 49.3662 73.4082 49.3662ZM94.1797 49.3662C100.464 49.3662 104.375 45.1621 104.375 38.4385V38.4092C104.375 31.7002 100.449 27.4961 94.1797 27.4961C87.9248 27.4961 83.9844 31.6855 83.9844 38.4092V38.4385C83.9844 45.1621 87.8955 49.3662 94.1797 49.3662ZM94.1797 45.6162C90.708 45.6162 88.4961 42.8623 88.4961 38.4385V38.4092C88.4961 33.9854 90.7227 31.2461 94.1797 31.2461C97.6514 31.2461 99.8633 34 99.8633 38.4092V38.4385C99.8633 42.8184 97.6953 45.6162 94.1797 45.6162ZM107.231 49H111.655V42.335H115.728C120.181 42.335 123.154 39.4639 123.154 35.1133V35.084C123.154 30.7334 120.181 27.8623 115.728 27.8623H107.231V49ZM114.644 31.3633C117.178 31.3633 118.672 32.6963 118.672 35.0986V35.1279C118.672 37.5303 117.178 38.8779 114.644 38.8779H111.655V31.3633H114.644ZM135.312 49.3662C141.597 49.3662 145.508 45.1621 145.508 38.4385V38.4092C145.508 31.7002 141.582 27.4961 135.312 27.4961C129.058 27.4961 125.117 31.6855 125.117 38.4092V38.4385C125.117 45.1621 129.028 49.3662 135.312 49.3662ZM135.312 45.6162C131.841 45.6162 129.629 42.8623 129.629 38.4385V38.4092C129.629 33.9854 131.855 31.2461 135.312 31.2461C138.784 31.2461 140.996 34 140.996 38.4092V38.4385C140.996 42.8184 138.828 45.6162 135.312 45.6162ZM148.364 49H152.788V41.3389H156.333L160.273 49H165.283L160.83 40.6797C163.174 39.7568 164.653 37.4424 164.653 34.6592V34.6299C164.653 30.3818 161.841 27.8623 157.095 27.8623H148.364V49ZM152.788 37.9844V31.3193H156.553C158.735 31.3193 160.127 32.6084 160.127 34.6299V34.6592C160.127 36.7393 158.809 37.9844 156.611 37.9844H152.788ZM172.637 49H177.061V31.5098H183.184V27.8623H166.528V31.5098H172.637V49ZM185.63 49H199.634V45.3525H190.054V40.0352H199.092V36.5781H190.054V31.5098H199.634V27.8623H185.63V49ZM83.7207 88H88.1445V79.6797H96.7432V76.1787H88.1445V70.5098H97.5635V66.8623H83.7207V88ZM100.186 88H104.609V66.8623H100.186V88ZM115.845 88.3662C121.177 88.3662 124.37 85.7881 124.37 81.7305V81.7158C124.37 78.3906 122.378 76.5889 117.954 75.71L115.713 75.2559C113.281 74.7725 112.197 73.9961 112.197 72.6631V72.6484C112.197 71.1396 113.56 70.0996 115.83 70.085C118.013 70.085 119.536 71.0957 119.756 72.751L119.771 72.9268H123.945L123.931 72.6484C123.726 68.9424 120.723 66.4961 115.83 66.4961C111.143 66.4961 107.773 69.0449 107.773 72.9121V72.9268C107.773 76.1055 109.883 78.0977 114.058 78.9326L116.284 79.3721C118.906 79.9141 119.946 80.6318 119.946 82.0674V82.082C119.946 83.6934 118.408 84.7627 115.962 84.7627C113.545 84.7627 111.802 83.7373 111.523 82.0967L111.494 81.9355H107.319L107.334 82.1699C107.583 86.0664 110.82 88.3662 115.845 88.3662ZM136.484 88.3662C141.597 88.3662 145.303 85.1582 145.713 80.6611L145.728 80.5H141.421L141.392 80.6465C140.82 83.1514 139.033 84.6162 136.484 84.6162C133.101 84.6162 130.933 81.8623 130.933 77.4092V77.3945C130.933 72.9707 133.101 70.2461 136.484 70.2461C139.121 70.2461 140.85 71.7695 141.348 74.0986L141.406 74.3477H145.713L145.698 74.2158C145.288 69.7334 141.611 66.4961 136.484 66.4961C130.317 66.4961 126.421 70.5977 126.421 77.4092V77.4238C126.421 84.2354 130.303 88.3662 136.484 88.3662ZM146.387 88H151.03L152.627 82.873H160.098L161.694 88H166.338L158.97 66.8623H153.77L146.387 88ZM156.318 70.9639H156.406L159.072 79.5625H153.652L156.318 70.9639ZM168.506 88H182.173V84.3525H172.93V66.8623H168.506V88Z" fill="white"/>
</svg>
