<svg width="1129" height="663" viewBox="0 0 1129 663" fill="none" xmlns="http://www.w3.org/2000/svg">
<g clip-path="url(#clip0)">
<path d="M321 642C498.283 642 642 498.283 642 321C642 143.717 498.283 0 321 0C143.717 0 0 143.717 0 321C0 498.283 143.717 642 321 642Z" fill="#F2F2F2"/>
<path d="M559 663C842.874 663 1073 650.688 1073 635.5C1073 620.312 842.874 608 559 608C275.126 608 45 620.312 45 635.5C45 650.688 275.126 663 559 663Z" fill="#3F3D56"/>
<path opacity="0.2" d="M558 649C812.051 649 1018 639.15 1018 627C1018 614.85 812.051 605 558 605C303.949 605 98 614.85 98 627C98 639.15 303.949 649 558 649Z" fill="black"/>
<path d="M971 152.5H131V202.5H971V152.5Z" fill="#3F3D56"/>
<path d="M131 608.83C131 611.676 131.561 614.494 132.65 617.123C133.739 619.752 135.335 622.141 137.347 624.153C139.359 626.165 141.748 627.761 144.377 628.85C147.006 629.939 149.824 630.5 152.67 630.5H949.33C952.176 630.5 954.994 629.939 957.623 628.85C960.252 627.761 962.641 626.165 964.653 624.153C966.665 622.141 968.261 619.752 969.35 617.123C970.439 614.494 971 611.676 971 608.83V177.5H131V608.83Z" fill="#3F3D56"/>
<path d="M949.33 117.5H152.67C149.824 117.5 147.006 118.061 144.377 119.15C141.748 120.239 139.359 121.835 137.347 123.847C135.335 125.859 133.739 128.248 132.65 130.877C131.561 133.506 131 136.324 131 139.17V177.5H971V139.17C971 136.324 970.439 133.506 969.35 130.877C968.261 128.248 966.665 125.859 964.653 123.847C962.641 121.835 960.252 120.239 957.623 119.15C954.994 118.061 952.176 117.5 949.33 117.5V117.5Z" fill="#3F3D56"/>
<path opacity="0.2" d="M949.33 117.5H152.67C149.824 117.5 147.006 118.061 144.377 119.15C141.748 120.239 139.359 121.835 137.347 123.847C135.335 125.859 133.739 128.248 132.65 130.877C131.561 133.506 131 136.324 131 139.17V177.5H971V139.17C971 136.324 970.439 133.506 969.35 130.877C968.261 128.248 966.665 125.859 964.653 123.847C962.641 121.835 960.252 120.239 957.623 119.15C954.994 118.061 952.176 117.5 949.33 117.5V117.5Z" fill="black"/>
<path d="M181 160.5C188.18 160.5 194 154.68 194 147.5C194 140.32 188.18 134.5 181 134.5C173.82 134.5 168 140.32 168 147.5C168 154.68 173.82 160.5 181 160.5Z" fill="#3F3D56"/>
<path d="M217 160.5C224.18 160.5 230 154.68 230 147.5C230 140.32 224.18 134.5 217 134.5C209.82 134.5 204 140.32 204 147.5C204 154.68 209.82 160.5 217 160.5Z" fill="#3F3D56"/>
<path d="M253 160.5C260.18 160.5 266 154.68 266 147.5C266 140.32 260.18 134.5 253 134.5C245.82 134.5 240 140.32 240 147.5C240 154.68 245.82 160.5 253 160.5Z" fill="#3F3D56"/>
<path d="M499.665 213.5H173.335C170.389 213.5 168 215.889 168 218.835V594.165C168 597.111 170.389 599.5 173.335 599.5H499.665C502.611 599.5 505 597.111 505 594.165V218.835C505 215.889 502.611 213.5 499.665 213.5Z" fill="#606060"/>
<path d="M881.524 272.5H608.476C605.452 272.5 603 274.952 603 277.976V289.024C603 292.048 605.452 294.5 608.476 294.5H881.524C884.548 294.5 887 292.048 887 289.024V277.976C887 274.952 884.548 272.5 881.524 272.5Z" fill="#2E8555"/>
<path d="M947.524 352.5H542.476C539.452 352.5 537 354.952 537 357.976V362.024C537 365.048 539.452 367.5 542.476 367.5H947.524C950.548 367.5 953 365.048 953 362.024V357.976C953 354.952 950.548 352.5 947.524 352.5Z" fill="#2E8555"/>
<path d="M947.524 396.5H542.476C539.452 396.5 537 398.952 537 401.976V406.024C537 409.048 539.452 411.5 542.476 411.5H947.524C950.548 411.5 953 409.048 953 406.024V401.976C953 398.952 950.548 396.5 947.524 396.5Z" fill="#2E8555"/>
<path d="M947.524 440.5H542.476C539.452 440.5 537 442.952 537 445.976V450.024C537 453.048 539.452 455.5 542.476 455.5H947.524C950.548 455.5 953 453.048 953 450.024V445.976C953 442.952 950.548 440.5 947.524 440.5Z" fill="#2E8555"/>
<path d="M947.524 484.5H542.476C539.452 484.5 537 486.952 537 489.976V494.024C537 497.048 539.452 499.5 542.476 499.5H947.524C950.548 499.5 953 497.048 953 494.024V489.976C953 486.952 950.548 484.5 947.524 484.5Z" fill="#2E8555"/>
<path d="M945.972 552.5H872.028C868.146 552.5 865 555.646 865 559.528V571.472C865 575.354 868.146 578.5 872.028 578.5H945.972C949.854 578.5 953 575.354 953 571.472V559.528C953 555.646 949.854 552.5 945.972 552.5Z" fill="#3ECC5F"/>
<path d="M1053.1 506.116C1055.76 501.472 1057.14 496.202 1057.09 490.85C1057.09 477.053 1048.54 465.869 1038 465.869C1027.46 465.869 1018.92 477.053 1018.92 490.85C1018.87 496.202 1020.24 501.472 1022.9 506.116C1020.29 510.78 1018.92 516.036 1018.92 521.382C1018.92 526.728 1020.29 531.984 1022.9 536.648C1020.29 541.312 1018.92 546.569 1018.92 551.914C1018.92 557.26 1020.29 562.516 1022.9 567.18C1020.29 571.844 1018.92 577.101 1018.92 582.446C1018.92 587.792 1020.29 593.048 1022.9 597.712C1020.24 602.356 1018.87 607.626 1018.92 612.978C1018.92 626.775 1027.46 637.959 1038 637.959C1048.54 637.959 1057.09 626.775 1057.09 612.978C1057.14 607.626 1055.76 602.356 1053.1 597.712C1055.71 593.048 1057.09 587.792 1057.09 582.446C1057.09 577.101 1055.71 571.844 1053.1 567.18C1055.71 562.516 1057.09 557.26 1057.09 551.914C1057.09 546.569 1055.71 541.312 1053.1 536.648C1055.71 531.984 1057.09 526.728 1057.09 521.382C1057.09 516.036 1055.71 510.78 1053.1 506.116Z" fill="#3F3D56"/>
<path d="M1038 485.299C1048.54 485.299 1057.09 474.114 1057.09 460.318C1057.09 446.521 1048.54 435.337 1038 435.337C1027.46 435.337 1018.92 446.521 1018.92 460.318C1018.92 474.114 1027.46 485.299 1038 485.299Z" fill="#3F3D56"/>
<path d="M1038 454.767C1048.54 454.767 1057.09 443.582 1057.09 429.786C1057.09 415.989 1048.54 404.805 1038 404.805C1027.46 404.805 1018.92 415.989 1018.92 429.786C1018.92 443.582 1027.46 454.767 1038 454.767Z" fill="#3F3D56"/>
<path fill-rule="evenodd" clip-rule="evenodd" d="M1109.44 220.845C1112.05 217.526 1114.42 214.03 1116.55 210.384L1066.4 202.149L1120.63 202.552C1125.84 191.234 1128.67 178.973 1128.97 166.519C1129.27 154.066 1127.03 141.682 1122.38 130.126L1049.62 167.868L1116.72 118.547C1110.43 107.684 1101.98 98.2325 1091.88 90.7803C1081.78 83.328 1070.26 78.035 1058.03 75.231C1045.79 72.4269 1033.11 72.1718 1020.78 74.4817C1008.44 76.7915 996.713 81.6168 986.323 88.6569C975.933 95.6969 967.105 104.801 960.387 115.402C953.669 126.003 949.206 137.874 947.276 150.275C945.346 162.676 945.99 175.341 949.169 187.482C952.347 199.624 957.991 210.98 965.75 220.845C961.686 226.011 958.191 231.599 955.325 237.514L1020.41 271.329L951.011 248.037C946.139 262.442 944.934 277.835 947.508 292.822C950.081 307.81 956.351 321.919 965.75 333.874C955.145 347.356 948.548 363.551 946.713 380.606C944.878 397.662 947.88 414.889 955.374 430.319C962.869 445.749 974.554 458.758 989.093 467.86C1003.63 476.962 1020.44 481.789 1037.59 481.789C1054.75 481.789 1071.56 476.962 1086.1 467.86C1100.63 458.758 1112.32 445.749 1119.81 430.319C1127.31 414.889 1130.31 397.662 1128.48 380.606C1126.64 363.551 1120.04 347.356 1109.44 333.874C1122.11 317.761 1129 297.858 1129 277.359C1129 256.861 1122.11 236.957 1109.44 220.845V220.845Z" fill="#3ECC5F"/>
<path opacity="0.1" d="M946.189 277.359C946.157 297.863 953.05 317.777 965.75 333.874C955.145 347.356 948.548 363.551 946.713 380.606C944.878 397.662 947.88 414.889 955.374 430.319C962.869 445.749 974.554 458.758 989.093 467.86C1003.63 476.962 1020.44 481.789 1037.59 481.789C1054.75 481.789 1071.56 476.962 1086.1 467.86C1100.64 458.758 1112.32 445.749 1119.81 430.319C1127.31 414.889 1130.31 397.662 1128.48 380.606C1126.64 363.551 1120.04 347.356 1109.44 333.874C1121.69 318.321 946.189 267.1 946.189 277.359Z" fill="black"/>
<path d="M188.903 274H196.975C203.317 274 207.053 270.06 207.053 263.351V263.321C207.053 256.627 203.303 252.862 196.975 252.862H188.903V274ZM193.327 270.338V256.51H196.447C200.329 256.51 202.541 258.927 202.541 263.336V263.365C202.541 267.936 200.402 270.338 196.447 270.338H193.327ZM216.75 274.322C221.496 274.322 224.528 271.275 224.528 266.148V266.119C224.528 261.036 221.438 257.975 216.735 257.975C212.048 257.975 208.972 261.065 208.972 266.119V266.148C208.972 271.261 211.975 274.322 216.75 274.322ZM216.765 270.968C214.655 270.968 213.322 269.225 213.322 266.148V266.119C213.322 263.087 214.67 261.329 216.735 261.329C218.815 261.329 220.178 263.087 220.178 266.119V266.148C220.178 269.21 218.845 270.968 216.765 270.968ZM233.918 274.322C238.107 274.322 240.817 271.715 241.022 268.287V268.199H237.038L237.023 268.331C236.73 269.913 235.661 270.968 233.947 270.968C231.838 270.968 230.52 269.225 230.52 266.148V266.134C230.52 263.131 231.838 261.329 233.933 261.329C235.705 261.329 236.745 262.472 237.009 263.966L237.038 264.098H241.008V263.995C240.847 260.597 238.137 257.975 233.874 257.975C229.172 257.975 226.169 261.095 226.169 266.119V266.134C226.169 271.202 229.128 274.322 233.918 274.322ZM248.435 274.322C250.808 274.322 252.419 273.209 253.225 271.407H253.312V274H257.59V258.297H253.312V267.32C253.312 269.371 252.097 270.777 250.178 270.777C248.259 270.777 247.292 269.591 247.292 267.54V258.297H243.015V268.434C243.015 272.11 244.978 274.322 248.435 274.322ZM260.373 274H264.65V264.522C264.65 262.75 265.749 261.52 267.375 261.52C268.957 261.52 269.909 262.516 269.909 264.2V274H274.025V264.449C274.025 262.706 275.095 261.52 276.721 261.52C278.376 261.52 279.284 262.516 279.284 264.332V274H283.562V263.263C283.562 260.099 281.496 257.975 278.42 257.975C276.12 257.975 274.245 259.234 273.542 261.212H273.454C272.927 259.146 271.33 257.975 269.133 257.975C267.023 257.975 265.383 259.146 264.738 260.934H264.65V258.297H260.373V274ZM293.42 274.322C297.902 274.322 300.07 271.671 300.554 269.356L300.598 269.195H296.672L296.643 269.283C296.335 270.162 295.266 271.129 293.508 271.129C291.325 271.129 289.963 269.664 289.919 267.159H300.729V265.841C300.729 261.095 297.844 257.975 293.244 257.975C288.645 257.975 285.7 261.168 285.7 266.163V266.178C285.7 271.202 288.615 274.322 293.42 274.322ZM293.317 261.168C295.09 261.168 296.364 262.296 296.628 264.464H289.963C290.241 262.34 291.56 261.168 293.317 261.168ZM302.941 274H307.219V264.977C307.219 262.926 308.435 261.52 310.354 261.52C312.272 261.52 313.239 262.691 313.239 264.742V274H317.517V263.863C317.517 260.187 315.554 257.975 312.097 257.975C309.724 257.975 308.112 259.073 307.307 260.875H307.219V258.297H302.941V274ZM326.467 274.322C327.36 274.322 328.049 274.234 328.532 274.161V271.026C328.269 271.056 327.99 271.1 327.609 271.1C326.32 271.1 325.661 270.602 325.661 269.137V261.52H328.532V258.297H325.661V254.459H321.34V258.297H319.157V261.52H321.34V269.605C321.34 272.975 322.98 274.322 326.467 274.322ZM335.417 274.249C337.482 274.249 339.152 273.268 340.046 271.656H340.134V274H344.411V263.233C344.411 260.069 341.789 257.975 337.731 257.975C333.586 257.975 331.096 260.055 330.861 262.955L330.847 263.131H334.758L334.787 262.999C334.992 261.988 335.959 261.241 337.556 261.241C339.226 261.241 340.134 262.105 340.134 263.497V264.464L336.252 264.698C332.355 264.947 330.144 266.617 330.144 269.474V269.503C330.144 272.271 332.268 274.249 335.417 274.249ZM334.377 269.283V269.254C334.377 268.141 335.241 267.438 336.896 267.335L340.134 267.13V268.258C340.134 269.898 338.728 271.129 336.809 271.129C335.329 271.129 334.377 270.44 334.377 269.283ZM354.357 274.322C358.547 274.322 361.257 271.715 361.462 268.287V268.199H357.478L357.463 268.331C357.17 269.913 356.101 270.968 354.387 270.968C352.277 270.968 350.959 269.225 350.959 266.148V266.134C350.959 263.131 352.277 261.329 354.372 261.329C356.145 261.329 357.185 262.472 357.448 263.966L357.478 264.098H361.447V263.995C361.286 260.597 358.576 257.975 354.313 257.975C349.611 257.975 346.608 261.095 346.608 266.119V266.134C346.608 271.202 349.567 274.322 354.357 274.322ZM365.754 256.275C367.043 256.275 368.039 255.265 368.039 254.049C368.039 252.833 367.043 251.822 365.754 251.822C364.465 251.822 363.469 252.833 363.469 254.049C363.469 255.265 364.465 256.275 365.754 256.275ZM363.615 274H367.893V258.297H363.615V274ZM379.011 256.539L382.6 251.529H378.806L376.14 256.539H379.011ZM377.971 274.322C382.717 274.322 385.749 271.275 385.749 266.148V266.119C385.749 261.036 382.658 257.975 377.956 257.975C373.269 257.975 370.192 261.065 370.192 266.119V266.148C370.192 271.261 373.195 274.322 377.971 274.322ZM377.985 270.968C375.876 270.968 374.543 269.225 374.543 266.148V266.119C374.543 263.087 375.891 261.329 377.956 261.329C380.036 261.329 381.398 263.087 381.398 266.119V266.148C381.398 269.21 380.065 270.968 377.985 270.968ZM387.961 274H392.238V264.977C392.238 262.926 393.454 261.52 395.373 261.52C397.292 261.52 398.259 262.691 398.259 264.742V274H402.536V263.863C402.536 260.187 400.573 257.975 397.116 257.975C394.743 257.975 393.132 259.073 392.326 260.875H392.238V258.297H387.961V274Z" fill="white"/>
<path d="M217.301 317H220.706L221.877 313.24H227.355L228.526 317H231.932L226.528 301.499H222.715L217.301 317ZM224.584 304.507H224.648L226.604 310.812H222.629L224.584 304.507ZM233.253 320.76H236.39V315.034H236.454C237.077 316.398 238.377 317.236 240.021 317.236C242.899 317.236 244.683 314.98 244.683 311.242V311.231C244.683 307.482 242.899 305.248 239.978 305.248C238.345 305.248 237.088 306.097 236.465 307.493H236.39V305.484H233.253V320.76ZM238.946 314.637C237.421 314.637 236.379 313.326 236.379 311.253V311.242C236.379 309.158 237.421 307.848 238.946 307.848C240.504 307.848 241.492 309.126 241.492 311.231V311.242C241.492 313.337 240.504 314.637 238.946 314.637ZM249.742 317.183C251.257 317.183 252.481 316.463 253.137 315.281H253.201V317H256.338V309.104C256.338 306.784 254.415 305.248 251.439 305.248C248.399 305.248 246.573 306.773 246.401 308.9L246.391 309.029H249.259L249.28 308.933C249.431 308.191 250.14 307.644 251.311 307.644C252.535 307.644 253.201 308.277 253.201 309.298V310.007L250.354 310.179C247.497 310.361 245.875 311.586 245.875 313.681V313.702C245.875 315.732 247.433 317.183 249.742 317.183ZM248.979 313.541V313.52C248.979 312.703 249.613 312.188 250.827 312.112L253.201 311.962V312.789C253.201 313.992 252.17 314.895 250.763 314.895C249.678 314.895 248.979 314.39 248.979 313.541ZM258.368 317H261.505V310.555C261.505 308.879 262.407 307.955 263.954 307.955C264.405 307.955 264.835 308.02 265.093 308.127V305.366C264.856 305.302 264.534 305.248 264.19 305.248C262.848 305.248 261.913 306.075 261.569 307.493H261.505V305.484H258.368V317ZM270.958 317.236C271.613 317.236 272.118 317.172 272.473 317.118V314.819C272.279 314.841 272.075 314.873 271.796 314.873C270.851 314.873 270.367 314.508 270.367 313.434V307.848H272.473V305.484H270.367V302.67H267.198V305.484H265.598V307.848H267.198V313.777C267.198 316.248 268.401 317.236 270.958 317.236ZM277.521 317.183C279.036 317.183 280.261 316.463 280.916 315.281H280.98V317H284.117V309.104C284.117 306.784 282.194 305.248 279.219 305.248C276.179 305.248 274.353 306.773 274.181 308.9L274.17 309.029H277.038L277.06 308.933C277.21 308.191 277.919 307.644 279.09 307.644C280.314 307.644 280.98 308.277 280.98 309.298V310.007L278.134 310.179C275.276 310.361 273.654 311.586 273.654 313.681V313.702C273.654 315.732 275.212 317.183 277.521 317.183ZM276.759 313.541V313.52C276.759 312.703 277.393 312.188 278.606 312.112L280.98 311.962V312.789C280.98 313.992 279.949 314.895 278.542 314.895C277.457 314.895 276.759 314.39 276.759 313.541ZM290.412 317.236C292.077 317.236 293.345 316.398 293.957 315.034H294.021V317H297.158V301.499H294.021V307.482H293.957C293.334 306.086 292.045 305.248 290.412 305.248C287.512 305.248 285.729 307.482 285.729 311.231V311.242C285.729 314.98 287.512 317.236 290.412 317.236ZM291.465 314.637C289.896 314.637 288.919 313.337 288.919 311.242V311.231C288.919 309.126 289.907 307.848 291.465 307.848C292.979 307.848 294.032 309.158 294.032 311.231V311.242C294.032 313.326 292.99 314.637 291.465 314.637ZM304.538 317.236C308.019 317.236 310.242 315.002 310.242 311.242V311.221C310.242 307.493 307.976 305.248 304.527 305.248C301.09 305.248 298.834 307.515 298.834 311.221V311.242C298.834 314.991 301.036 317.236 304.538 317.236ZM304.549 314.776C303.002 314.776 302.024 313.498 302.024 311.242V311.221C302.024 308.997 303.013 307.708 304.527 307.708C306.053 307.708 307.052 308.997 307.052 311.221V311.242C307.052 313.487 306.074 314.776 304.549 314.776ZM320.179 317H323.391V301.499H320.168L316.161 304.281V307.16L320.114 304.475H320.179V317Z" fill="white"/>
<path d="M217.301 356H220.706L221.877 352.24H227.355L228.526 356H231.932L226.528 340.499H222.715L217.301 356ZM224.584 343.507H224.648L226.604 349.812H222.629L224.584 343.507ZM233.253 359.76H236.39V354.034H236.454C237.077 355.398 238.377 356.236 240.021 356.236C242.899 356.236 244.683 353.98 244.683 350.242V350.231C244.683 346.482 242.899 344.248 239.978 344.248C238.345 344.248 237.088 345.097 236.465 346.493H236.39V344.484H233.253V359.76ZM238.946 353.637C237.421 353.637 236.379 352.326 236.379 350.253V350.242C236.379 348.158 237.421 346.848 238.946 346.848C240.504 346.848 241.492 348.126 241.492 350.231V350.242C241.492 352.337 240.504 353.637 238.946 353.637ZM249.742 356.183C251.257 356.183 252.481 355.463 253.137 354.281H253.201V356H256.338V348.104C256.338 345.784 254.415 344.248 251.439 344.248C248.399 344.248 246.573 345.773 246.401 347.9L246.391 348.029H249.259L249.28 347.933C249.431 347.191 250.14 346.644 251.311 346.644C252.535 346.644 253.201 347.277 253.201 348.298V349.007L250.354 349.179C247.497 349.361 245.875 350.586 245.875 352.681V352.702C245.875 354.732 247.433 356.183 249.742 356.183ZM248.979 352.541V352.52C248.979 351.703 249.613 351.188 250.827 351.112L253.201 350.962V351.789C253.201 352.992 252.17 353.895 250.763 353.895C249.678 353.895 248.979 353.39 248.979 352.541ZM258.368 356H261.505V349.555C261.505 347.879 262.407 346.955 263.954 346.955C264.405 346.955 264.835 347.02 265.093 347.127V344.366C264.856 344.302 264.534 344.248 264.19 344.248C262.848 344.248 261.913 345.075 261.569 346.493H261.505V344.484H258.368V356ZM270.958 356.236C271.613 356.236 272.118 356.172 272.473 356.118V353.819C272.279 353.841 272.075 353.873 271.796 353.873C270.851 353.873 270.367 353.508 270.367 352.434V346.848H272.473V344.484H270.367V341.67H267.198V344.484H265.598V346.848H267.198V352.777C267.198 355.248 268.401 356.236 270.958 356.236ZM277.521 356.183C279.036 356.183 280.261 355.463 280.916 354.281H280.98V356H284.117V348.104C284.117 345.784 282.194 344.248 279.219 344.248C276.179 344.248 274.353 345.773 274.181 347.9L274.17 348.029H277.038L277.06 347.933C277.21 347.191 277.919 346.644 279.09 346.644C280.314 346.644 280.98 347.277 280.98 348.298V349.007L278.134 349.179C275.276 349.361 273.654 350.586 273.654 352.681V352.702C273.654 354.732 275.212 356.183 277.521 356.183ZM276.759 352.541V352.52C276.759 351.703 277.393 351.188 278.606 351.112L280.98 350.962V351.789C280.98 352.992 279.949 353.895 278.542 353.895C277.457 353.895 276.759 353.39 276.759 352.541ZM290.412 356.236C292.077 356.236 293.345 355.398 293.957 354.034H294.021V356H297.158V340.499H294.021V346.482H293.957C293.334 345.086 292.045 344.248 290.412 344.248C287.512 344.248 285.729 346.482 285.729 350.231V350.242C285.729 353.98 287.512 356.236 290.412 356.236ZM291.465 353.637C289.896 353.637 288.919 352.337 288.919 350.242V350.231C288.919 348.126 289.907 346.848 291.465 346.848C292.979 346.848 294.032 348.158 294.032 350.231V350.242C294.032 352.326 292.99 353.637 291.465 353.637ZM304.538 356.236C308.019 356.236 310.242 354.002 310.242 350.242V350.221C310.242 346.493 307.976 344.248 304.527 344.248C301.09 344.248 298.834 346.515 298.834 350.221V350.242C298.834 353.991 301.036 356.236 304.538 356.236ZM304.549 353.776C303.002 353.776 302.024 352.498 302.024 350.242V350.221C302.024 347.997 303.013 346.708 304.527 346.708C306.053 346.708 307.052 347.997 307.052 350.221V350.242C307.052 352.487 306.074 353.776 304.549 353.776ZM316.301 356H327.569V353.422H320.544V353.293L323.788 350.328C326.463 347.868 327.354 346.644 327.354 344.764V344.742C327.354 342.1 325.099 340.23 321.822 340.23C318.546 340.23 316.118 342.282 316.118 345.204V345.29H319.126L319.137 345.193C319.18 343.797 320.254 342.755 321.844 342.755C323.219 342.755 324.186 343.657 324.196 344.925V344.946C324.196 346.021 323.777 346.783 321.779 348.652L316.301 353.776V356Z" fill="white"/>
<path d="M217.301 395H220.706L221.877 391.24H227.355L228.526 395H231.932L226.528 379.499H222.715L217.301 395ZM224.584 382.507H224.648L226.604 388.812H222.629L224.584 382.507ZM233.253 398.76H236.39V393.034H236.454C237.077 394.398 238.377 395.236 240.021 395.236C242.899 395.236 244.683 392.98 244.683 389.242V389.231C244.683 385.482 242.899 383.248 239.978 383.248C238.345 383.248 237.088 384.097 236.465 385.493H236.39V383.484H233.253V398.76ZM238.946 392.637C237.421 392.637 236.379 391.326 236.379 389.253V389.242C236.379 387.158 237.421 385.848 238.946 385.848C240.504 385.848 241.492 387.126 241.492 389.231V389.242C241.492 391.337 240.504 392.637 238.946 392.637ZM249.742 395.183C251.257 395.183 252.481 394.463 253.137 393.281H253.201V395H256.338V387.104C256.338 384.784 254.415 383.248 251.439 383.248C248.399 383.248 246.573 384.773 246.401 386.9L246.391 387.029H249.259L249.28 386.933C249.431 386.191 250.14 385.644 251.311 385.644C252.535 385.644 253.201 386.277 253.201 387.298V388.007L250.354 388.179C247.497 388.361 245.875 389.586 245.875 391.681V391.702C245.875 393.732 247.433 395.183 249.742 395.183ZM248.979 391.541V391.52C248.979 390.703 249.613 390.188 250.827 390.112L253.201 389.962V390.789C253.201 391.992 252.17 392.895 250.763 392.895C249.678 392.895 248.979 392.39 248.979 391.541ZM258.368 395H261.505V388.555C261.505 386.879 262.407 385.955 263.954 385.955C264.405 385.955 264.835 386.02 265.093 386.127V383.366C264.856 383.302 264.534 383.248 264.19 383.248C262.848 383.248 261.913 384.075 261.569 385.493H261.505V383.484H258.368V395ZM270.958 395.236C271.613 395.236 272.118 395.172 272.473 395.118V392.819C272.279 392.841 272.075 392.873 271.796 392.873C270.851 392.873 270.367 392.508 270.367 391.434V385.848H272.473V383.484H270.367V380.67H267.198V383.484H265.598V385.848H267.198V391.777C267.198 394.248 268.401 395.236 270.958 395.236ZM277.521 395.183C279.036 395.183 280.261 394.463 280.916 393.281H280.98V395H284.117V387.104C284.117 384.784 282.194 383.248 279.219 383.248C276.179 383.248 274.353 384.773 274.181 386.9L274.17 387.029H277.038L277.06 386.933C277.21 386.191 277.919 385.644 279.09 385.644C280.314 385.644 280.98 386.277 280.98 387.298V388.007L278.134 388.179C275.276 388.361 273.654 389.586 273.654 391.681V391.702C273.654 393.732 275.212 395.183 277.521 395.183ZM276.759 391.541V391.52C276.759 390.703 277.393 390.188 278.606 390.112L280.98 389.962V390.789C280.98 391.992 279.949 392.895 278.542 392.895C277.457 392.895 276.759 392.39 276.759 391.541ZM290.412 395.236C292.077 395.236 293.345 394.398 293.957 393.034H294.021V395H297.158V379.499H294.021V385.482H293.957C293.334 384.086 292.045 383.248 290.412 383.248C287.512 383.248 285.729 385.482 285.729 389.231V389.242C285.729 392.98 287.512 395.236 290.412 395.236ZM291.465 392.637C289.896 392.637 288.919 391.337 288.919 389.242V389.231C288.919 387.126 289.907 385.848 291.465 385.848C292.979 385.848 294.032 387.158 294.032 389.231V389.242C294.032 391.326 292.99 392.637 291.465 392.637ZM304.538 395.236C308.019 395.236 310.242 393.002 310.242 389.242V389.221C310.242 385.493 307.976 383.248 304.527 383.248C301.09 383.248 298.834 385.515 298.834 389.221V389.242C298.834 392.991 301.036 395.236 304.538 395.236ZM304.549 392.776C303.002 392.776 302.024 391.498 302.024 389.242V389.221C302.024 386.997 303.013 385.708 304.527 385.708C306.053 385.708 307.052 386.997 307.052 389.221V389.242C307.052 391.487 306.074 392.776 304.549 392.776ZM322.069 395.269C325.689 395.269 328.096 393.399 328.096 390.628V390.606C328.096 388.501 326.592 387.169 324.293 386.954V386.89C326.108 386.514 327.526 385.257 327.526 383.323V383.302C327.526 380.863 325.378 379.23 322.037 379.23C318.782 379.23 316.602 380.992 316.387 383.678L316.376 383.807H319.352L319.362 383.71C319.491 382.507 320.522 381.723 322.037 381.723C323.562 381.723 324.454 382.475 324.454 383.731V383.753C324.454 385.01 323.401 385.869 321.779 385.869H320.05V388.179H321.822C323.691 388.179 324.798 388.995 324.798 390.478V390.499C324.798 391.767 323.724 392.658 322.059 392.658C320.383 392.658 319.287 391.831 319.147 390.725L319.126 390.606H316.032L316.043 390.746C316.258 393.421 318.557 395.269 322.069 395.269Z" fill="white"/>
</g>
<defs>
<clipPath id="clip0">
<rect width="1129" height="663" fill="white"/>
</clipPath>
</defs>
</svg>
